<?xml version="1.0" encoding="UTF-8"?>
<svg xmlns="http://www.w3.org/2000/svg" version="1.1" xmlns:xlink="http://www.w3.org/1999/xlink" viewBox="0 0 1920 1080">
  <defs>
    <style>
      .cls-1 {
        stroke-miterlimit: 10;
      }

      .cls-1, .cls-2 {
        fill: none;
        stroke: #475f71;
        stroke-width: 3px;
      }

      .cls-2 {
        stroke-dasharray: 0 0 0 25;
        stroke-linecap: round;
        stroke-linejoin: round;
      }

      .cls-3 {
        opacity: .1;
      }

      .cls-4 {
        fill: url(#Degradado_sin_nombre_2);
        stroke-width: 0px;
      }

      .cls-5 {
        opacity: .3;
      }
    </style>
    <radialGradient id="Degradado_sin_nombre_2" data-name="Degradado sin nombre 2" cx="962" cy="542" fx="962" fy="542" r="1204.67" gradientTransform="" gradientUnits="userSpaceOnUse">
      <stop offset="0" stop-color="#11263a"/>
      <stop offset=".04" stop-color="#102336"/>
      <stop offset=".24" stop-color="#0f1c28"/>
      <stop offset=".5" stop-color="#0f1821"/>
      <stop offset="1" stop-color="#0f171f"/>
    </radialGradient>
  </defs>
  <g id="Capa_1" data-name="Capa 1">
    <rect class="cls-4" width="1920" height="1080"/>
  </g>
  <g id="Capa_2" data-name="Capa 2" class="cls-3">
    <g>
      <line class="cls-1" x1=".5" y1="1075.5" x2="1920.5" y2="1075.5"/>
      <line class="cls-1" x1=".5" y1="1050.5" x2="1920.5" y2="1050.5"/>
      <line class="cls-1" x1=".5" y1="1025.5" x2="1920.5" y2="1025.5"/>
      <line class="cls-1" x1=".5" y1="1000.5" x2="1920.5" y2="1000.5"/>
      <line class="cls-1" x1=".5" y1="975.5" x2="1920.5" y2="975.5"/>
      <line class="cls-1" x1=".5" y1="950.5" x2="1920.5" y2="950.5"/>
      <line class="cls-1" x1=".5" y1="925.5" x2="1920.5" y2="925.5"/>
      <line class="cls-1" x1=".5" y1="900.5" x2="1920.5" y2="900.5"/>
      <line class="cls-1" x1=".5" y1="875.5" x2="1920.5" y2="875.5"/>
      <line class="cls-1" x1=".5" y1="850.5" x2="1920.5" y2="850.5"/>
      <line class="cls-1" x1=".5" y1="825.5" x2="1920.5" y2="825.5"/>
      <line class="cls-1" x1=".5" y1="800.5" x2="1920.5" y2="800.5"/>
      <line class="cls-1" x1=".5" y1="775.5" x2="1920.5" y2="775.5"/>
      <line class="cls-1" x1=".5" y1="750.5" x2="1920.5" y2="750.5"/>
      <line class="cls-1" x1=".5" y1="725.5" x2="1920.5" y2="725.5"/>
      <line class="cls-1" x1=".5" y1="700.5" x2="1920.5" y2="700.5"/>
      <line class="cls-1" x1=".5" y1="675.5" x2="1920.5" y2="675.5"/>
      <line class="cls-1" x1=".5" y1="650.5" x2="1920.5" y2="650.5"/>
      <line class="cls-1" x1=".5" y1="625.5" x2="1920.5" y2="625.5"/>
      <line class="cls-1" x1=".5" y1="600.5" x2="1920.5" y2="600.5"/>
      <line class="cls-1" x1=".5" y1="575.5" x2="1920.5" y2="575.5"/>
      <line class="cls-1" x1=".5" y1="550.5" x2="1920.5" y2="550.5"/>
      <line class="cls-1" x1=".5" y1="525.5" x2="1920.5" y2="525.5"/>
      <line class="cls-1" x1=".5" y1="500.5" x2="1920.5" y2="500.5"/>
      <line class="cls-1" x1=".5" y1="475.5" x2="1920.5" y2="475.5"/>
      <line class="cls-1" x1=".5" y1="450.5" x2="1920.5" y2="450.5"/>
      <line class="cls-1" x1=".5" y1="425.5" x2="1920.5" y2="425.5"/>
      <line class="cls-1" x1=".5" y1="400.5" x2="1920.5" y2="400.5"/>
      <line class="cls-1" x1=".5" y1="375.5" x2="1920.5" y2="375.5"/>
      <line class="cls-1" x1=".5" y1="350.5" x2="1920.5" y2="350.5"/>
      <line class="cls-1" x1=".5" y1="325.5" x2="1920.5" y2="325.5"/>
      <line class="cls-1" x1=".5" y1="300.5" x2="1920.5" y2="300.5"/>
      <line class="cls-1" x1=".5" y1="275.5" x2="1920.5" y2="275.5"/>
      <line class="cls-1" x1=".5" y1="250.5" x2="1920.5" y2="250.5"/>
      <line class="cls-1" x1=".5" y1="225.5" x2="1920.5" y2="225.5"/>
      <line class="cls-1" x1=".5" y1="200.5" x2="1920.5" y2="200.5"/>
      <line class="cls-1" x1=".5" y1="175.5" x2="1920.5" y2="175.5"/>
      <line class="cls-1" x1=".5" y1="150.5" x2="1920.5" y2="150.5"/>
      <line class="cls-1" x1=".5" y1="125.5" x2="1920.5" y2="125.5"/>
      <line class="cls-1" x1=".5" y1="100.5" x2="1920.5" y2="100.5"/>
      <line class="cls-1" x1=".5" y1="75.5" x2="1920.5" y2="75.5"/>
      <line class="cls-1" x1=".5" y1="50.5" x2="1920.5" y2="50.5"/>
      <line class="cls-1" x1=".5" y1="25.5" x2="1920.5" y2="25.5"/>
      <line class="cls-1" x1=".5" y1=".5" x2="1920.5" y2=".5"/>
    </g>
    <g>
      <line class="cls-1" x1="1899.5" y1="1081.5" x2="1900.5" y2="1.5"/>
      <line class="cls-1" x1="1874.5" y1="1081.5" x2="1875.5" y2="1.5"/>
      <line class="cls-1" x1="1849.5" y1="1081.5" x2="1850.5" y2="1.5"/>
      <line class="cls-1" x1="1824.5" y1="1081.5" x2="1825.5" y2="1.5"/>
      <line class="cls-1" x1="1799.5" y1="1081.5" x2="1800.5" y2="1.5"/>
      <line class="cls-1" x1="1774.5" y1="1081.5" x2="1775.5" y2="1.5"/>
      <line class="cls-1" x1="1749.5" y1="1081.5" x2="1750.5" y2="1.5"/>
      <line class="cls-1" x1="1724.5" y1="1081.5" x2="1725.5" y2="1.5"/>
      <line class="cls-1" x1="1699.5" y1="1081.5" x2="1700.5" y2="1.5"/>
      <line class="cls-1" x1="1674.5" y1="1081.5" x2="1675.5" y2="1.5"/>
      <line class="cls-1" x1="1649.5" y1="1081.5" x2="1650.5" y2="1.5"/>
      <line class="cls-1" x1="1624.5" y1="1081.5" x2="1625.5" y2="1.5"/>
      <line class="cls-1" x1="1599.5" y1="1081.5" x2="1600.5" y2="1.5"/>
      <line class="cls-1" x1="1574.5" y1="1081.5" x2="1575.5" y2="1.5"/>
      <line class="cls-1" x1="1549.5" y1="1081.5" x2="1550.5" y2="1.5"/>
      <line class="cls-1" x1="1524.5" y1="1081.5" x2="1525.5" y2="1.5"/>
      <line class="cls-1" x1="1499.5" y1="1081.5" x2="1500.5" y2="1.5"/>
      <line class="cls-1" x1="1474.5" y1="1081.5" x2="1475.5" y2="1.5"/>
      <line class="cls-1" x1="1449.5" y1="1081.5" x2="1450.5" y2="1.5"/>
      <line class="cls-1" x1="1424.5" y1="1081.5" x2="1425.5" y2="1.5"/>
      <line class="cls-1" x1="1399.5" y1="1081.5" x2="1400.5" y2="1.5"/>
      <line class="cls-1" x1="1374.5" y1="1081.5" x2="1375.5" y2="1.5"/>
      <line class="cls-1" x1="1349.5" y1="1081.5" x2="1350.5" y2="1.5"/>
      <line class="cls-1" x1="1324.5" y1="1081.5" x2="1325.5" y2="1.5"/>
      <line class="cls-1" x1="1299.5" y1="1081.5" x2="1300.5" y2="1.5"/>
      <line class="cls-1" x1="1274.5" y1="1081.5" x2="1275.5" y2="1.5"/>
      <line class="cls-1" x1="1249.5" y1="1081.5" x2="1250.5" y2="1.5"/>
      <line class="cls-1" x1="1224.5" y1="1081.5" x2="1225.5" y2="1.5"/>
      <line class="cls-1" x1="1199.5" y1="1081.5" x2="1200.5" y2="1.5"/>
      <line class="cls-1" x1="1174.5" y1="1081.5" x2="1175.5" y2="1.5"/>
      <line class="cls-1" x1="1149.5" y1="1081.5" x2="1150.5" y2="1.5"/>
      <line class="cls-1" x1="1124.5" y1="1081.5" x2="1125.5" y2="1.5"/>
      <line class="cls-1" x1="1099.5" y1="1081.5" x2="1100.5" y2="1.5"/>
      <line class="cls-1" x1="1074.5" y1="1081.5" x2="1075.5" y2="1.5"/>
      <line class="cls-1" x1="1049.5" y1="1081.5" x2="1050.5" y2="1.5"/>
      <line class="cls-1" x1="1024.5" y1="1081.5" x2="1025.5" y2="1.5"/>
      <line class="cls-1" x1="999.5" y1="1081.5" x2="1000.5" y2="1.5"/>
      <line class="cls-1" x1="974.5" y1="1081.5" x2="975.5" y2="1.5"/>
      <line class="cls-1" x1="949.5" y1="1081.5" x2="950.5" y2="1.5"/>
      <line class="cls-1" x1="924.5" y1="1081.5" x2="925.5" y2="1.5"/>
      <line class="cls-1" x1="899.5" y1="1081.5" x2="900.5" y2="1.5"/>
      <line class="cls-1" x1="874.5" y1="1081.5" x2="875.5" y2="1.5"/>
      <line class="cls-1" x1="849.5" y1="1081.5" x2="850.5" y2="1.5"/>
      <line class="cls-1" x1="824.5" y1="1081.5" x2="825.5" y2="1.5"/>
      <line class="cls-1" x1="799.5" y1="1081.5" x2="800.5" y2="1.5"/>
      <line class="cls-1" x1="774.5" y1="1081.5" x2="775.5" y2="1.5"/>
      <line class="cls-1" x1="749.5" y1="1081.5" x2="750.5" y2="1.5"/>
      <line class="cls-1" x1="724.5" y1="1081.5" x2="725.5" y2="1.5"/>
      <line class="cls-1" x1="699.5" y1="1081.5" x2="700.5" y2="1.5"/>
      <line class="cls-1" x1="674.5" y1="1081.5" x2="675.5" y2="1.5"/>
      <line class="cls-1" x1="649.5" y1="1081.5" x2="650.5" y2="1.5"/>
      <line class="cls-1" x1="624.5" y1="1081.5" x2="625.5" y2="1.5"/>
      <line class="cls-1" x1="599.5" y1="1081.5" x2="600.5" y2="1.5"/>
      <line class="cls-1" x1="574.5" y1="1081.5" x2="575.5" y2="1.5"/>
      <line class="cls-1" x1="549.5" y1="1081.5" x2="550.5" y2="1.5"/>
      <line class="cls-1" x1="524.5" y1="1081.5" x2="525.5" y2="1.5"/>
      <line class="cls-1" x1="499.5" y1="1081.5" x2="500.5" y2="1.5"/>
      <line class="cls-1" x1="474.5" y1="1081.5" x2="475.5" y2="1.5"/>
      <line class="cls-1" x1="449.5" y1="1081.5" x2="450.5" y2="1.5"/>
      <line class="cls-1" x1="424.5" y1="1081.5" x2="425.5" y2="1.5"/>
      <line class="cls-1" x1="399.5" y1="1081.5" x2="400.5" y2="1.5"/>
      <line class="cls-1" x1="374.5" y1="1081.5" x2="375.5" y2="1.5"/>
      <line class="cls-1" x1="349.5" y1="1081.5" x2="350.5" y2="1.5"/>
      <line class="cls-1" x1="324.5" y1="1081.5" x2="325.5" y2="1.5"/>
      <line class="cls-1" x1="299.5" y1="1081.5" x2="300.5" y2="1.5"/>
      <line class="cls-1" x1="274.5" y1="1081.5" x2="275.5" y2="1.5"/>
      <line class="cls-1" x1="249.5" y1="1081.5" x2="250.5" y2="1.5"/>
      <line class="cls-1" x1="224.5" y1="1081.5" x2="225.5" y2="1.5"/>
      <line class="cls-1" x1="199.5" y1="1081.5" x2="200.5" y2="1.5"/>
      <line class="cls-1" x1="174.5" y1="1081.5" x2="175.5" y2="1.5"/>
      <line class="cls-1" x1="149.5" y1="1081.5" x2="150.5" y2="1.5"/>
      <line class="cls-1" x1="124.5" y1="1081.5" x2="125.5" y2="1.5"/>
      <line class="cls-1" x1="99.5" y1="1081.5" x2="100.5" y2="1.5"/>
      <line class="cls-1" x1="74.5" y1="1081.5" x2="75.5" y2="1.5"/>
      <line class="cls-1" x1="49.5" y1="1081.5" x2="50.5" y2="1.5"/>
      <line class="cls-1" x1="24.5" y1="1081.5" x2="25.5" y2="1.5"/>
      <line class="cls-1" x1="-.5" y1="1081.5" x2=".5" y2="1.5"/>
    </g>
  </g>
  <g id="Capa_3" data-name="Capa 3" class="cls-5">
    <g>
      <line class="cls-2" x1=".5" y1="1076.5" x2="1920.5" y2="1076.5"/>
      <line class="cls-2" x1=".5" y1="1051.5" x2="1920.5" y2="1051.5"/>
      <line class="cls-2" x1=".5" y1="1026.5" x2="1920.5" y2="1026.5"/>
      <line class="cls-2" x1=".5" y1="1001.5" x2="1920.5" y2="1001.5"/>
      <line class="cls-2" x1=".5" y1="976.5" x2="1920.5" y2="976.5"/>
      <line class="cls-2" x1=".5" y1="951.5" x2="1920.5" y2="951.5"/>
      <line class="cls-2" x1=".5" y1="926.5" x2="1920.5" y2="926.5"/>
      <line class="cls-2" x1=".5" y1="901.5" x2="1920.5" y2="901.5"/>
      <line class="cls-2" x1=".5" y1="876.5" x2="1920.5" y2="876.5"/>
      <line class="cls-2" x1=".5" y1="851.5" x2="1920.5" y2="851.5"/>
      <line class="cls-2" x1=".5" y1="826.5" x2="1920.5" y2="826.5"/>
      <line class="cls-2" x1=".5" y1="801.5" x2="1920.5" y2="801.5"/>
      <line class="cls-2" x1=".5" y1="776.5" x2="1920.5" y2="776.5"/>
      <line class="cls-2" x1=".5" y1="751.5" x2="1920.5" y2="751.5"/>
      <line class="cls-2" x1=".5" y1="726.5" x2="1920.5" y2="726.5"/>
      <line class="cls-2" x1=".5" y1="701.5" x2="1920.5" y2="701.5"/>
      <line class="cls-2" x1=".5" y1="676.5" x2="1920.5" y2="676.5"/>
      <line class="cls-2" x1=".5" y1="651.5" x2="1920.5" y2="651.5"/>
      <line class="cls-2" x1=".5" y1="626.5" x2="1920.5" y2="626.5"/>
      <line class="cls-2" x1=".5" y1="601.5" x2="1920.5" y2="601.5"/>
      <line class="cls-2" x1=".5" y1="576.5" x2="1920.5" y2="576.5"/>
      <line class="cls-2" x1=".5" y1="551.5" x2="1920.5" y2="551.5"/>
      <line class="cls-2" x1=".5" y1="526.5" x2="1920.5" y2="526.5"/>
      <line class="cls-2" x1=".5" y1="501.5" x2="1920.5" y2="501.5"/>
      <line class="cls-2" x1=".5" y1="476.5" x2="1920.5" y2="476.5"/>
      <line class="cls-2" x1=".5" y1="451.5" x2="1920.5" y2="451.5"/>
      <line class="cls-2" x1=".5" y1="426.5" x2="1920.5" y2="426.5"/>
      <line class="cls-2" x1=".5" y1="401.5" x2="1920.5" y2="401.5"/>
      <line class="cls-2" x1=".5" y1="376.5" x2="1920.5" y2="376.5"/>
      <line class="cls-2" x1=".5" y1="351.5" x2="1920.5" y2="351.5"/>
      <line class="cls-2" x1=".5" y1="326.5" x2="1920.5" y2="326.5"/>
      <line class="cls-2" x1=".5" y1="301.5" x2="1920.5" y2="301.5"/>
      <line class="cls-2" x1=".5" y1="276.5" x2="1920.5" y2="276.5"/>
      <line class="cls-2" x1=".5" y1="251.5" x2="1920.5" y2="251.5"/>
      <line class="cls-2" x1=".5" y1="226.5" x2="1920.5" y2="226.5"/>
      <line class="cls-2" x1=".5" y1="201.5" x2="1920.5" y2="201.5"/>
      <line class="cls-2" x1=".5" y1="176.5" x2="1920.5" y2="176.5"/>
      <line class="cls-2" x1=".5" y1="151.5" x2="1920.5" y2="151.5"/>
      <line class="cls-2" x1=".5" y1="126.5" x2="1920.5" y2="126.5"/>
      <line class="cls-2" x1=".5" y1="101.5" x2="1920.5" y2="101.5"/>
      <line class="cls-2" x1=".5" y1="76.5" x2="1920.5" y2="76.5"/>
      <line class="cls-2" x1=".5" y1="51.5" x2="1920.5" y2="51.5"/>
      <line class="cls-2" x1=".5" y1="26.5" x2="1920.5" y2="26.5"/>
      <line class="cls-2" x1=".5" y1="1.5" x2="1920.5" y2="1.5"/>
    </g>
  </g>
</svg>