<?xml version="1.0" encoding="UTF-8"?>
<svg id="Capa_1" data-name="Capa 1" xmlns="http://www.w3.org/2000/svg" version="1.1" viewBox="0 0 28 28">
  <defs>
    <style>
      .cls-1, .cls-2, .cls-3, .cls-4 {
        stroke-width: 0px;
      }

      .cls-1, .cls-4 {
        fill: #083650;
      }

      .cls-2 {
        isolation: isolate;
        opacity: .5;
      }

      .cls-2, .cls-3 {
        fill: #fff;
      }

      .cls-4 {
        fill-rule: evenodd;
      }
    </style>
  </defs>
  <g id="Capa_3" data-name="Capa 3">
    <circle class="cls-1" cx="14" cy="14" r="14"/>
  </g>
  <g>
    <path class="cls-2" d="M18,13h-8c-.6,0-1-.4-1-1v-3c0-2.8,2.2-5,5-5s5,2.2,5,5v3c0,.6-.4,1-1,1h0ZM11,11h6v-2c0-1.7-1.3-3-3-3s-3,1.3-3,3v2Z"/>
    <path class="cls-3" d="M9,11h10c1.7,0,3,1.3,3,3v7c0,1.7-1.3,3-3,3h-10c-1.7,0-3-1.3-3-3v-7c0-1.7,1.3-3,3-3Z"/>
  </g>
  <g>
    <path class="cls-4" d="M8.9,17.6c.2-.3.6-.3.9,0l2,1.9c.3.2.3.7,0,.9-.2.2-.6.3-.8,0l-2-1.9c-.3-.2-.3-.7,0-.9"/>
    <path class="cls-4" d="M11.8,15.6c.2.3.2.7,0,.9l-2,1.9c-.3.2-.6.2-.9,0s-.2-.7,0-.9h0l2-1.9c.3-.2.6-.2.9,0M19.1,17.6c.2.3.2.7,0,.9l-2,1.9c-.3.2-.6.2-.9,0-.2-.3-.2-.7,0-.9h0l2-1.9c.3-.2.6-.2.9,0"/>
    <path class="cls-4" d="M16.2,15.6c.2-.3.6-.3.9,0l2,1.9c.3.2.3.7,0,.9-.2.2-.6.3-.8,0l-2-1.9c-.3-.2-.3-.7,0-.9M15.1,13.8c.3,0,.5.5.4.8h0l-1.8,7.2c0,.3-.4.5-.7.5-.3,0-.5-.5-.4-.8l1.8-7.2c0-.3.4-.5.7-.5h0"/>
  </g>
</svg>